M48
METRIC,LZ,000.000
;FILE_FORMAT=3:3
;TYPE=PLATED
;Layer: PTH_Through_Via
;EasyEDA v6.5.57, 2026-07-29 22:27:12
;c5fbdd24a08247c7b54e1019145e24f9,10
;Gerber Generator version 0.2
;Holesize 1 = 0.305 mm
T01C0.305
%
G05
G90
T01
X056846Y032233
X024736Y043448
X023580Y045943
X045936Y038574
X037819Y044928
X025277Y042079
X024962Y045889
X025587Y044692
X052674Y034722
X022795Y027317
X028363Y040809
X028161Y039311
X028954Y039257
X028153Y036999
X028150Y035729
X047538Y040559
X045910Y043369
X039953Y039432
X056178Y040398
X026962Y026425
X058868Y041110
X052870Y039858
X055233Y039239
M30
