M48
METRIC,LZ,000.000
;FILE_FORMAT=3:3
;TYPE=PLATED
;Layer: PTH_Through
;EasyEDA v6.5.57, 2026-07-29 22:27:12
;c5fbdd24a08247c7b54e1019145e24f9,10
;Gerber Generator version 0.2
;Holesize 1 = 0.305 mm
T01C0.305
;Holesize 2 = 0.800 mm
T02C0.800
;Holesize 3 = 1.050 mm
T03C1.050
%
G05
G90
T01
X056846Y032233
X024736Y043448
X023580Y045943
X045936Y038574
X037819Y044928
X025277Y042079
X024962Y045889
X025587Y044692
X052674Y034722
X022795Y027317
X028363Y040809
X028161Y039311
X028954Y039257
X028153Y036999
X028150Y035729
X047538Y040559
X045910Y043369
X039953Y039432
X056178Y040398
X026962Y026425
X058868Y041110
X052870Y039858
X055233Y039239
T02
X065258Y045473G85X064658Y045473
X061178Y045473G85X060378Y045473
X061178Y036823G85X060378Y036823
X065258Y036823G85X064658Y036823
T03
X018542Y057277
X021082Y057277
X023622Y057277
X026162Y057277
X028702Y057277
X031242Y057277
X033782Y057277
X036322Y057277
X038862Y057277
X041402Y057277
X043942Y057277
X046482Y057277
X049022Y057277
X051562Y057277
X054102Y057277
X018796Y025019
X021336Y025019
X023876Y025019
X026416Y025019
X028956Y025019
X031496Y025019
X034036Y025019
X036576Y025019
X039116Y025019
X041656Y025019
X044196Y025019
X046736Y025019
X049276Y025019
X051816Y025019
X054356Y025019
M30
