G04 Layer: TopSolderMaskLayer*
G04 EasyEDA v6.5.57, 2026-07-29 22:27:12*
G04 c5fbdd24a08247c7b54e1019145e24f9,10*
G04 Gerber Generator version 0.2*
G04 Scale: 100 percent, Rotated: No, Reflected: No *
G04 Dimensions in millimeters *
G04 leading zeros omitted , absolute positions ,4 integer and 5 decimal *
%FSLAX45Y45*%
%MOMM*%

%AMMACRO1*4,1,8,-0.2711,-0.3208,-0.3009,-0.2908,-0.3009,0.2911,-0.2711,0.3208,0.2709,0.3208,0.3009,0.2911,0.3009,-0.2908,0.2709,-0.3208,-0.2711,-0.3208,0*%
%AMMACRO2*4,1,8,-0.8209,-0.8501,-0.8501,-0.8207,-0.8501,0.8209,-0.8209,0.8501,0.8207,0.8501,0.8501,0.8209,0.8501,-0.8207,0.8207,-0.8501,-0.8209,-0.8501,0*%
%AMMACRO3*4,1,8,-0.3039,-0.3208,-0.3336,-0.2908,-0.3336,0.2911,-0.3039,0.3208,0.3037,0.3208,0.3336,0.2911,0.3336,-0.2908,0.3037,-0.3208,-0.3039,-0.3208,0*%
%AMMACRO4*4,1,8,-0.3038,-0.3208,-0.3335,-0.2908,-0.3335,0.2911,-0.3038,0.3208,0.3035,0.3208,0.3335,0.2911,0.3335,-0.2908,0.3035,-0.3208,-0.3038,-0.3208,0*%
%AMMACRO5*4,1,8,-0.5874,-0.7394,-0.6171,-0.7094,-0.6171,0.7097,-0.5874,0.7394,0.5871,0.7394,0.6171,0.7097,0.6171,-0.7094,0.5871,-0.7394,-0.5874,-0.7394,0*%
%AMMACRO6*4,1,8,-0.7708,-0.5,-0.8,-0.4705,-0.8,0.4708,-0.7708,0.5,0.7705,0.5,0.8,0.4708,0.8,-0.4705,0.7705,-0.5,-0.7708,-0.5,0*%
%AMMACRO7*4,1,8,-0.7709,-0.5,-0.8001,-0.4705,-0.8001,0.4708,-0.7709,0.5,0.7706,0.5,0.8001,0.4708,0.8001,-0.4705,0.7706,-0.5,-0.7709,-0.5,0*%
%AMMACRO8*4,1,8,-0.6708,-0.7,-0.7,-0.6706,-0.7,0.6708,-0.6708,0.7,0.6706,0.7,0.7,0.6708,0.7,-0.6706,0.6706,-0.7,-0.6708,-0.7,0*%
%AMMACRO9*4,1,8,-0.6708,-0.7002,-0.7,-0.6707,-0.7,0.6709,-0.6708,0.7002,0.6706,0.7002,0.7,0.6709,0.7,-0.6707,0.6706,-0.7002,-0.6708,-0.7002,0*%
%AMMACRO10*4,1,8,-0.4708,-0.8,-0.5,-0.7705,-0.5,0.7708,-0.4708,0.8,0.4705,0.8,0.5,0.7708,0.5,-0.7705,0.4705,-0.8,-0.4708,-0.8,0*%
%AMMACRO11*4,1,8,-1.271,-0.9258,-1.3007,-0.8959,-1.3007,0.8961,-1.271,0.9258,1.2708,0.9258,1.3007,0.8961,1.3007,-0.8959,1.2708,-0.9258,-1.271,-0.9258,0*%
%AMMACRO12*4,1,8,-0.1712,-0.4509,-0.2009,-0.4209,-0.2009,0.4211,-0.1712,0.4509,0.1709,0.4509,0.2009,0.4211,0.2009,-0.4209,0.1709,-0.4509,-0.1712,-0.4509,0*%
%AMMACRO13*4,1,8,-0.5461,-1.0508,-0.5758,-1.0208,-0.5758,1.0211,-0.5461,1.0508,0.5458,1.0508,0.5758,1.0211,0.5758,-1.0208,0.5458,-1.0508,-0.5461,-1.0508,0*%
%AMMACRO14*4,1,8,-0.6711,-0.2009,-0.7008,-0.1709,-0.7008,0.1712,-0.6711,0.2009,0.6708,0.2009,0.7008,0.1712,0.7008,-0.1709,0.6708,-0.2009,-0.6711,-0.2009,0*%
%AMMACRO15*4,1,28,-0.6499,-0.351,-0.6656,-0.3485,-0.6798,-0.3411,-0.691,-0.3299,-0.6984,-0.3157,-0.7009,-0.3,-0.7009,-0.0015,-0.7012,0,-0.7012,0.3,-0.6986,0.3157,-0.6913,0.3299,-0.6801,0.3411,-0.6659,0.3485,-0.6501,0.351,0.6499,0.351,0.6656,0.3485,0.6798,0.3411,0.691,0.3299,0.6984,0.3157,0.7009,0.3,0.7009,0.0015,0.7012,0,0.7012,-0.3,0.6986,-0.3157,0.6913,-0.3299,0.6801,-0.3411,0.6659,-0.3485,0.6501,-0.351,-0.6499,-0.351,0*%
%AMMACRO16*4,1,24,-0.65,-0.3512,-0.6657,-0.3486,-0.68,-0.3412,-0.6911,-0.3301,-0.6985,-0.3158,-0.701,-0.3001,-0.701,0.3001,-0.6985,0.3158,-0.6911,0.3301,-0.68,0.3412,-0.6657,0.3486,-0.65,0.3512,0.65,0.3512,0.6657,0.3486,0.68,0.3412,0.6911,0.3301,0.6985,0.3158,0.701,0.3001,0.701,-0.3001,0.6985,-0.3158,0.6911,-0.3301,0.68,-0.3412,0.6657,-0.3486,0.65,-0.3512,-0.65,-0.3512,0*%
%AMMACRO17*4,1,24,-0.65,-0.351,-0.6657,-0.3485,-0.68,-0.3411,-0.6911,-0.3299,-0.6985,-0.3157,-0.701,-0.3,-0.701,0.3,-0.6985,0.3157,-0.6911,0.3299,-0.68,0.3411,-0.6657,0.3485,-0.65,0.351,0.65,0.351,0.6657,0.3485,0.68,0.3411,0.6911,0.3299,0.6985,0.3157,0.701,0.3,0.701,-0.3,0.6985,-0.3157,0.6911,-0.3299,0.68,-0.3411,0.6657,-0.3485,0.65,-0.351,-0.65,-0.351,0*%
%ADD10MACRO1*%
%ADD11MACRO2*%
%ADD12C,1.7000*%
%ADD13MACRO3*%
%ADD14MACRO4*%
%ADD15C,0.0180*%
%ADD16MACRO5*%
%ADD17MACRO6*%
%ADD18MACRO7*%
%ADD19MACRO8*%
%ADD20MACRO9*%
%ADD21MACRO10*%
%ADD22MACRO11*%
%ADD23MACRO12*%
%ADD24MACRO13*%
%ADD25MACRO14*%
%ADD26MACRO15*%
%ADD27MACRO16*%
%ADD28MACRO17*%
%ADD29O,1.901596X1.301598*%
%ADD30O,2.101596X1.301598*%

%LPD*%
D10*
G01*
X5172798Y4279900D03*
G01*
X5088801Y4279900D03*
G01*
X5604598Y3213100D03*
G01*
X5520601Y3213100D03*
G01*
X5452198Y4254500D03*
G01*
X5368201Y4254500D03*
G01*
X2162898Y4432300D03*
G01*
X2078901Y4432300D03*
G01*
X2099398Y4953000D03*
G01*
X2015401Y4953000D03*
D11*
G01*
X1854199Y5727700D03*
D12*
G01*
X2108200Y5727700D03*
G01*
X2362200Y5727700D03*
G01*
X2616200Y5727700D03*
G01*
X2870200Y5727700D03*
G01*
X3124200Y5727700D03*
G01*
X3378200Y5727700D03*
G01*
X3632200Y5727700D03*
G01*
X3886200Y5727700D03*
G01*
X4140200Y5727700D03*
G01*
X4394200Y5727700D03*
G01*
X4648200Y5727700D03*
G01*
X4902200Y5727700D03*
G01*
X5156200Y5727700D03*
G01*
X5410200Y5727700D03*
D11*
G01*
X1879599Y2501900D03*
D12*
G01*
X2133600Y2501900D03*
G01*
X2387600Y2501900D03*
G01*
X2641600Y2501900D03*
G01*
X2895600Y2501900D03*
G01*
X3149600Y2501900D03*
G01*
X3403600Y2501900D03*
G01*
X3657600Y2501900D03*
G01*
X3911600Y2501900D03*
G01*
X4165600Y2501900D03*
G01*
X4419600Y2501900D03*
G01*
X4673600Y2501900D03*
G01*
X4927600Y2501900D03*
G01*
X5181600Y2501900D03*
G01*
X5435600Y2501900D03*
D13*
G01*
X2087994Y4737100D03*
D14*
G01*
X2001418Y4737100D03*
D13*
G01*
X2253094Y4038600D03*
D14*
G01*
X2166518Y4038600D03*
D13*
G01*
X4780394Y3683000D03*
D14*
G01*
X4693818Y3683000D03*
D16*
G01*
X2030412Y3479800D03*
G01*
X1830387Y3479800D03*
G01*
X2030412Y3225800D03*
G01*
X1830387Y3225800D03*
D17*
G01*
X2693708Y4969903D03*
G01*
X2693708Y4842903D03*
G01*
X2693708Y4715903D03*
G01*
X2693708Y4588903D03*
G01*
X2693708Y4461903D03*
G01*
X2693708Y4334903D03*
G01*
X2693708Y4207903D03*
G01*
X2693708Y4080903D03*
G01*
X2693708Y3953903D03*
G01*
X2693708Y3826903D03*
G01*
X2693708Y3699903D03*
G01*
X2693708Y3572903D03*
G01*
X2693708Y3445903D03*
G01*
X2693708Y3318903D03*
D18*
G01*
X4469104Y3320910D03*
G01*
X4469104Y3447910D03*
G01*
X4469104Y3574910D03*
G01*
X4469104Y3701910D03*
G01*
X4469104Y3828910D03*
G01*
X4469104Y3955910D03*
G01*
X4469104Y4082910D03*
G01*
X4469104Y4209910D03*
G01*
X4469104Y4336910D03*
G01*
X4469104Y4463910D03*
G01*
X4469104Y4590910D03*
G01*
X4469104Y4717910D03*
G01*
X4469104Y4844910D03*
G01*
X4469104Y4971910D03*
D19*
G01*
X3494405Y4281093D03*
G01*
X3664407Y4281093D03*
D20*
G01*
X3834409Y4111104D03*
D19*
G01*
X3834409Y4281093D03*
D20*
G01*
X3664407Y4111104D03*
G01*
X3494405Y4111104D03*
D19*
G01*
X3494405Y3941114D03*
G01*
X3664407Y3941114D03*
G01*
X3834409Y3941114D03*
D21*
G01*
X3981411Y5113896D03*
G01*
X3854411Y5113896D03*
G01*
X3727411Y5113896D03*
D22*
G01*
X5359400Y3746500D03*
D23*
G01*
X5259400Y3898900D03*
G01*
X5309412Y3898900D03*
G01*
X5359400Y3898900D03*
G01*
X5409412Y3898900D03*
G01*
X5459399Y3898900D03*
G01*
X5459399Y3594100D03*
G01*
X5409412Y3594100D03*
G01*
X5359400Y3594100D03*
G01*
X5309412Y3594100D03*
G01*
X5259400Y3594100D03*
D24*
G01*
X1854504Y4330700D03*
G01*
X1447495Y4330700D03*
D25*
G01*
X6000978Y3939793D03*
G01*
X6000978Y3989806D03*
G01*
X6000978Y4039793D03*
G01*
X6000978Y4089806D03*
G01*
X6000978Y4139793D03*
G01*
X6000978Y4189806D03*
G01*
X6000978Y4239767D03*
G01*
X6000978Y4289806D03*
D26*
G01*
X6000991Y3794810D03*
D27*
G01*
X6000978Y4434801D03*
G01*
X6000978Y4354817D03*
D28*
G01*
X6001004Y3874795D03*
D29*
G01*
X6495808Y4547311D03*
D30*
G01*
X6077826Y4547311D03*
G01*
X6077826Y3682288D03*
D29*
G01*
X6495808Y3682288D03*
M02*
