G04 Layer: BottomLayer*
G04 EasyEDA v6.5.57, 2026-07-29 22:27:12*
G04 c5fbdd24a08247c7b54e1019145e24f9,10*
G04 Gerber Generator version 0.2*
G04 Scale: 100 percent, Rotated: No, Reflected: No *
G04 Dimensions in millimeters *
G04 leading zeros omitted , absolute positions ,4 integer and 5 decimal *
%FSLAX45Y45*%
%MOMM*%

%ADD10C,0.2540*%
%ADD11R,1.6000X1.6000*%
%ADD12C,1.6000*%
%ADD13O,1.799996X1.199998*%
%ADD14O,1.999996X1.199998*%
%ADD15C,0.6096*%
%ADD16C,0.0165*%

%LPD*%
D10*
X5523257Y3923919D02*
G01*
X5348912Y3923919D01*
X5286987Y3985844D01*
X2696187Y2642514D02*
G01*
X4521989Y2642514D01*
X5886782Y4007307D01*
X5886782Y4111015D01*
X3995320Y3943248D02*
G01*
X4455187Y4403115D01*
X5254500Y4403115D01*
X5617822Y4039793D01*
X2133602Y2501900D02*
G01*
X3422957Y3791254D01*
X4625748Y3791254D01*
X4655797Y3821303D01*
X4655797Y4272076D01*
X4590950Y4336922D01*
X1987577Y2501900D02*
G01*
X1987577Y2474899D01*
X2080846Y2381630D01*
X2169619Y2381630D01*
X2242441Y2454452D01*
X2242441Y2510942D01*
X2433855Y2702356D01*
X3612288Y2702356D01*
X4753790Y3843858D01*
X4753790Y4055897D01*
X1879602Y2501900D02*
G01*
X1987577Y2501900D01*
X4140202Y5727700D02*
G01*
X4140202Y4933899D01*
X2815008Y3608704D01*
X2815008Y3572916D01*
X3886202Y5727700D02*
G01*
X3886202Y4770805D01*
X2815313Y3699916D01*
X3632202Y5727700D02*
G01*
X2895424Y4990922D01*
X2895424Y3925671D01*
X3378202Y5727700D02*
G01*
X3254352Y5851550D01*
X3091258Y5851550D01*
X2997202Y5757494D01*
X2997202Y5661075D01*
X2777746Y5441619D01*
X2777746Y3969435D01*
X2816125Y3931056D01*
X3124202Y5727700D02*
G01*
X2836293Y5439790D01*
X2836293Y4080916D01*
X2870202Y5727700D02*
G01*
X2724304Y5581802D01*
X2724304Y3176523D01*
X2279500Y2731719D01*
X5267378Y3472179D02*
G01*
X5676369Y3881170D01*
X5676369Y4130675D01*
X4267202Y5539841D01*
X4267202Y5771819D01*
X4146323Y5892698D01*
X2781200Y5892698D01*
X2616202Y5727700D01*
X2362202Y5727700D02*
G01*
X2558722Y5531180D01*
X2558722Y4469180D01*
X2108202Y5727700D02*
G01*
X2108202Y4976901D01*
X2496187Y4588916D01*
X1854202Y5727700D02*
G01*
X1854202Y4881448D01*
X2527734Y4207916D01*
X3781859Y4492752D02*
G01*
X3781859Y4064507D01*
X3988920Y3857447D01*
X4593617Y3857447D01*
X2358011Y4594301D02*
G01*
X2473632Y4478680D01*
X2473632Y4344822D01*
X6495798Y4547311D02*
G01*
X6495798Y3682288D01*
X4165602Y2501900D02*
G01*
X3911602Y2501900D01*
X3911602Y2501900D02*
G01*
X3657602Y2501900D01*
X5410202Y5727700D02*
G01*
X5156202Y5727700D01*
X5410202Y5727700D02*
G01*
X5410202Y5214924D01*
X6077816Y4547311D01*
X5435602Y2501900D02*
G01*
X5684649Y2750946D01*
X5684649Y3223310D01*
X5684649Y3223310D02*
G01*
X6077816Y3616477D01*
X6077816Y3682288D01*
D11*
G01*
X1854200Y5727700D03*
D12*
G01*
X2108200Y5727700D03*
G01*
X2362200Y5727700D03*
G01*
X2616200Y5727700D03*
G01*
X2870200Y5727700D03*
G01*
X3124200Y5727700D03*
G01*
X3378200Y5727700D03*
G01*
X3632200Y5727700D03*
G01*
X3886200Y5727700D03*
G01*
X4140200Y5727700D03*
G01*
X4394200Y5727700D03*
G01*
X4648200Y5727700D03*
G01*
X4902200Y5727700D03*
G01*
X5156200Y5727700D03*
G01*
X5410200Y5727700D03*
D11*
G01*
X1879600Y2501900D03*
D12*
G01*
X2133600Y2501900D03*
G01*
X2387600Y2501900D03*
G01*
X2641600Y2501900D03*
G01*
X2895600Y2501900D03*
G01*
X3149600Y2501900D03*
G01*
X3403600Y2501900D03*
G01*
X3657600Y2501900D03*
G01*
X3911600Y2501900D03*
G01*
X4165600Y2501900D03*
G01*
X4419600Y2501900D03*
G01*
X4673600Y2501900D03*
G01*
X4927600Y2501900D03*
G01*
X5181600Y2501900D03*
G01*
X5435600Y2501900D03*
D13*
G01*
X6495808Y4547311D03*
D14*
G01*
X6077826Y4547311D03*
G01*
X6077826Y3682288D03*
D13*
G01*
X6495808Y3682288D03*
D15*
G01*
X5684649Y3223310D03*
G01*
X2473632Y4344822D03*
G01*
X2358011Y4594301D03*
G01*
X4593617Y3857447D03*
G01*
X3781859Y4492752D03*
G01*
X2527734Y4207916D03*
G01*
X2496187Y4588916D03*
G01*
X2558722Y4469180D03*
G01*
X5267378Y3472179D03*
G01*
X2279500Y2731719D03*
G01*
X2836293Y4080916D03*
G01*
X2816125Y3931056D03*
G01*
X2895424Y3925671D03*
G01*
X2815313Y3699916D03*
G01*
X2815008Y3572916D03*
G01*
X4753790Y4055897D03*
G01*
X4590950Y4336922D03*
G01*
X3995320Y3943248D03*
G01*
X5617822Y4039793D03*
G01*
X2696187Y2642514D03*
G01*
X5886782Y4111015D03*
G01*
X5286987Y3985844D03*
G01*
X5523257Y3923919D03*
M02*
