G04 Layer: TopSilkscreenLayer*
G04 EasyEDA v6.5.57, 2026-07-29 22:27:12*
G04 c5fbdd24a08247c7b54e1019145e24f9,10*
G04 Gerber Generator version 0.2*
G04 Scale: 100 percent, Rotated: No, Reflected: No *
G04 Dimensions in millimeters *
G04 leading zeros omitted , absolute positions ,4 integer and 5 decimal *
%FSLAX45Y45*%
%MOMM*%

%ADD10C,0.1524*%
%ADD11C,0.2540*%
%ADD12C,0.1520*%
%ADD13C,0.4000*%
%ADD14C,0.0132*%

%LPD*%
D10*
X5145277Y4470907D02*
G01*
X5139943Y4481321D01*
X5129529Y4491736D01*
X5119370Y4496815D01*
X5098541Y4496815D01*
X5088127Y4491736D01*
X5077713Y4481321D01*
X5072379Y4470907D01*
X5067300Y4455160D01*
X5067300Y4429252D01*
X5072379Y4413757D01*
X5077713Y4403344D01*
X5088127Y4392929D01*
X5098541Y4387850D01*
X5119370Y4387850D01*
X5129529Y4392929D01*
X5139943Y4403344D01*
X5145277Y4413757D01*
X5179568Y4475987D02*
G01*
X5189981Y4481321D01*
X5205475Y4496815D01*
X5205475Y4387850D01*
X5640577Y3378707D02*
G01*
X5635243Y3389121D01*
X5624829Y3399536D01*
X5614670Y3404615D01*
X5593841Y3404615D01*
X5583427Y3399536D01*
X5573013Y3389121D01*
X5567679Y3378707D01*
X5562600Y3362960D01*
X5562600Y3337052D01*
X5567679Y3321557D01*
X5573013Y3311144D01*
X5583427Y3300729D01*
X5593841Y3295650D01*
X5614670Y3295650D01*
X5624829Y3300729D01*
X5635243Y3311144D01*
X5640577Y3321557D01*
X5679947Y3378707D02*
G01*
X5679947Y3383787D01*
X5685281Y3394202D01*
X5690361Y3399536D01*
X5700775Y3404615D01*
X5721604Y3404615D01*
X5732018Y3399536D01*
X5737097Y3394202D01*
X5742431Y3383787D01*
X5742431Y3373373D01*
X5737097Y3362960D01*
X5726684Y3347465D01*
X5674868Y3295650D01*
X5747511Y3295650D01*
X5411977Y4470907D02*
G01*
X5406643Y4481321D01*
X5396229Y4491736D01*
X5386070Y4496815D01*
X5365241Y4496815D01*
X5354827Y4491736D01*
X5344413Y4481321D01*
X5339079Y4470907D01*
X5334000Y4455160D01*
X5334000Y4429252D01*
X5339079Y4413757D01*
X5344413Y4403344D01*
X5354827Y4392929D01*
X5365241Y4387850D01*
X5386070Y4387850D01*
X5396229Y4392929D01*
X5406643Y4403344D01*
X5411977Y4413757D01*
X5456681Y4496815D02*
G01*
X5513831Y4496815D01*
X5482590Y4455160D01*
X5498084Y4455160D01*
X5508497Y4450079D01*
X5513831Y4445000D01*
X5518911Y4429252D01*
X5518911Y4418837D01*
X5513831Y4403344D01*
X5503418Y4392929D01*
X5487670Y4387850D01*
X5472175Y4387850D01*
X5456681Y4392929D01*
X5451347Y4398010D01*
X5446268Y4408423D01*
X2325877Y4470907D02*
G01*
X2320543Y4481321D01*
X2310129Y4491736D01*
X2299970Y4496815D01*
X2279141Y4496815D01*
X2268727Y4491736D01*
X2258313Y4481321D01*
X2252979Y4470907D01*
X2247900Y4455160D01*
X2247900Y4429252D01*
X2252979Y4413757D01*
X2258313Y4403344D01*
X2268727Y4392929D01*
X2279141Y4387850D01*
X2299970Y4387850D01*
X2310129Y4392929D01*
X2320543Y4403344D01*
X2325877Y4413757D01*
X2411984Y4496815D02*
G01*
X2360168Y4424171D01*
X2438145Y4424171D01*
X2411984Y4496815D02*
G01*
X2411984Y4387850D01*
X1767078Y5017007D02*
G01*
X1761744Y5027421D01*
X1751329Y5037836D01*
X1741170Y5042915D01*
X1720342Y5042915D01*
X1709928Y5037836D01*
X1699513Y5027421D01*
X1694179Y5017007D01*
X1689100Y5001260D01*
X1689100Y4975352D01*
X1694179Y4959857D01*
X1699513Y4949444D01*
X1709928Y4939029D01*
X1720342Y4933950D01*
X1741170Y4933950D01*
X1751329Y4939029D01*
X1761744Y4949444D01*
X1767078Y4959857D01*
X1863597Y5042915D02*
G01*
X1811781Y5042915D01*
X1806447Y4996179D01*
X1811781Y5001260D01*
X1827276Y5006594D01*
X1842770Y5006594D01*
X1858518Y5001260D01*
X1868931Y4991100D01*
X1874012Y4975352D01*
X1874012Y4964937D01*
X1868931Y4949444D01*
X1858518Y4939029D01*
X1842770Y4933950D01*
X1827276Y4933950D01*
X1811781Y4939029D01*
X1806447Y4944110D01*
X1801368Y4954523D01*
X3606800Y5995415D02*
G01*
X3606800Y5886450D01*
X3679443Y5995415D02*
G01*
X3679443Y5886450D01*
X3606800Y5943600D02*
G01*
X3679443Y5943600D01*
X3713734Y5974587D02*
G01*
X3724147Y5979921D01*
X3739895Y5995415D01*
X3739895Y5886450D01*
X3632200Y2769615D02*
G01*
X3632200Y2660650D01*
X3704843Y2769615D02*
G01*
X3704843Y2660650D01*
X3632200Y2717800D02*
G01*
X3704843Y2717800D01*
X3744468Y2743707D02*
G01*
X3744468Y2748787D01*
X3749547Y2759202D01*
X3754881Y2764536D01*
X3765295Y2769615D01*
X3785870Y2769615D01*
X3796284Y2764536D01*
X3801618Y2759202D01*
X3806697Y2748787D01*
X3806697Y2738373D01*
X3801618Y2727960D01*
X3791204Y2712465D01*
X3739134Y2660650D01*
X3812031Y2660650D01*
X1701800Y4827015D02*
G01*
X1701800Y4718050D01*
X1701800Y4827015D02*
G01*
X1748536Y4827015D01*
X1764029Y4821936D01*
X1769363Y4816602D01*
X1774444Y4806187D01*
X1774444Y4795773D01*
X1769363Y4785360D01*
X1764029Y4780279D01*
X1748536Y4775200D01*
X1701800Y4775200D01*
X1738121Y4775200D02*
G01*
X1774444Y4718050D01*
X1808734Y4806187D02*
G01*
X1819147Y4811521D01*
X1834895Y4827015D01*
X1834895Y4718050D01*
X1828800Y4090415D02*
G01*
X1828800Y3981450D01*
X1828800Y4090415D02*
G01*
X1875536Y4090415D01*
X1891029Y4085336D01*
X1896363Y4080002D01*
X1901444Y4069587D01*
X1901444Y4059173D01*
X1896363Y4048760D01*
X1891029Y4043679D01*
X1875536Y4038600D01*
X1828800Y4038600D01*
X1865121Y4038600D02*
G01*
X1901444Y3981450D01*
X1987804Y4090415D02*
G01*
X1935734Y4017771D01*
X2013711Y4017771D01*
X1987804Y4090415D02*
G01*
X1987804Y3981450D01*
X4876800Y3747515D02*
G01*
X4876800Y3638550D01*
X4876800Y3747515D02*
G01*
X4923536Y3747515D01*
X4939029Y3742436D01*
X4944363Y3737102D01*
X4949443Y3726687D01*
X4949443Y3716273D01*
X4944363Y3705860D01*
X4939029Y3700779D01*
X4923536Y3695700D01*
X4876800Y3695700D01*
X4913122Y3695700D02*
G01*
X4949443Y3638550D01*
X5046218Y3747515D02*
G01*
X4994147Y3747515D01*
X4989068Y3700779D01*
X4994147Y3705860D01*
X5009895Y3711194D01*
X5025390Y3711194D01*
X5040884Y3705860D01*
X5051297Y3695700D01*
X5056631Y3679952D01*
X5056631Y3669537D01*
X5051297Y3654044D01*
X5040884Y3643629D01*
X5025390Y3638550D01*
X5009895Y3638550D01*
X4994147Y3643629D01*
X4989068Y3648710D01*
X4983734Y3659123D01*
X1485900Y3544315D02*
G01*
X1485900Y3435350D01*
X1485900Y3544315D02*
G01*
X1532636Y3544315D01*
X1548129Y3539236D01*
X1553463Y3533902D01*
X1558544Y3523487D01*
X1558544Y3513073D01*
X1553463Y3502660D01*
X1548129Y3497579D01*
X1532636Y3492500D01*
X1485900Y3492500D01*
X1522221Y3492500D02*
G01*
X1558544Y3435350D01*
X1598168Y3518407D02*
G01*
X1598168Y3523487D01*
X1603247Y3533902D01*
X1608581Y3539236D01*
X1618995Y3544315D01*
X1639570Y3544315D01*
X1649984Y3539236D01*
X1655318Y3533902D01*
X1660397Y3523487D01*
X1660397Y3513073D01*
X1655318Y3502660D01*
X1644904Y3487165D01*
X1592834Y3435350D01*
X1665731Y3435350D01*
X1498600Y3303015D02*
G01*
X1498600Y3194050D01*
X1498600Y3303015D02*
G01*
X1545336Y3303015D01*
X1560829Y3297936D01*
X1566163Y3292602D01*
X1571244Y3282187D01*
X1571244Y3271773D01*
X1566163Y3261360D01*
X1560829Y3256279D01*
X1545336Y3251200D01*
X1498600Y3251200D01*
X1534921Y3251200D02*
G01*
X1571244Y3194050D01*
X1615947Y3303015D02*
G01*
X1673097Y3303015D01*
X1642110Y3261360D01*
X1657604Y3261360D01*
X1668018Y3256279D01*
X1673097Y3251200D01*
X1678431Y3235452D01*
X1678431Y3225037D01*
X1673097Y3209544D01*
X1662684Y3199129D01*
X1647189Y3194050D01*
X1631695Y3194050D01*
X1615947Y3199129D01*
X1610868Y3204210D01*
X1605534Y3214623D01*
X3537407Y5348922D02*
G01*
X3537407Y5270944D01*
X3542487Y5255450D01*
X3552901Y5245036D01*
X3568649Y5239956D01*
X3579063Y5239956D01*
X3594557Y5245036D01*
X3604971Y5255450D01*
X3610051Y5270944D01*
X3610051Y5348922D01*
X3644341Y5328094D02*
G01*
X3654755Y5333428D01*
X3670503Y5348922D01*
X3670503Y5239956D01*
X5334000Y4090415D02*
G01*
X5334000Y4012437D01*
X5339079Y3996944D01*
X5349493Y3986529D01*
X5365241Y3981450D01*
X5375656Y3981450D01*
X5391150Y3986529D01*
X5401563Y3996944D01*
X5406643Y4012437D01*
X5406643Y4090415D01*
X5446268Y4064507D02*
G01*
X5446268Y4069587D01*
X5451347Y4080002D01*
X5456681Y4085336D01*
X5467095Y4090415D01*
X5487670Y4090415D01*
X5498084Y4085336D01*
X5503418Y4080002D01*
X5508497Y4069587D01*
X5508497Y4059173D01*
X5503418Y4048760D01*
X5493004Y4033265D01*
X5440934Y3981450D01*
X5513831Y3981450D01*
X1630019Y4641748D02*
G01*
X1630019Y4563770D01*
X1635099Y4548276D01*
X1645513Y4537862D01*
X1661261Y4532782D01*
X1671675Y4532782D01*
X1687169Y4537862D01*
X1697583Y4548276D01*
X1702663Y4563770D01*
X1702663Y4641748D01*
X1747367Y4641748D02*
G01*
X1804517Y4641748D01*
X1773529Y4600092D01*
X1789023Y4600092D01*
X1799437Y4595012D01*
X1804517Y4589932D01*
X1809851Y4574184D01*
X1809851Y4563770D01*
X1804517Y4548276D01*
X1794103Y4537862D01*
X1778609Y4532782D01*
X1763115Y4532782D01*
X1747367Y4537862D01*
X1742287Y4542942D01*
X1736953Y4553356D01*
X5766879Y4097299D02*
G01*
X5844857Y4097299D01*
X5860351Y4102379D01*
X5870765Y4112793D01*
X5875845Y4128541D01*
X5875845Y4138955D01*
X5870765Y4154449D01*
X5860351Y4164863D01*
X5844857Y4169943D01*
X5766879Y4169943D01*
X5782373Y4277131D02*
G01*
X5771959Y4266717D01*
X5766879Y4250969D01*
X5766879Y4230395D01*
X5771959Y4214647D01*
X5782373Y4204233D01*
X5792787Y4204233D01*
X5803201Y4209567D01*
X5808535Y4214647D01*
X5813615Y4225061D01*
X5824029Y4256303D01*
X5829109Y4266717D01*
X5834443Y4271797D01*
X5844857Y4277131D01*
X5860351Y4277131D01*
X5870765Y4266717D01*
X5875845Y4250969D01*
X5875845Y4230395D01*
X5870765Y4214647D01*
X5860351Y4204233D01*
X5766879Y4311421D02*
G01*
X5875845Y4311421D01*
X5766879Y4311421D02*
G01*
X5766879Y4358157D01*
X5771959Y4373651D01*
X5777293Y4378985D01*
X5787707Y4384065D01*
X5798121Y4384065D01*
X5808535Y4378985D01*
X5813615Y4373651D01*
X5818695Y4358157D01*
X5818695Y4311421D02*
G01*
X5818695Y4358157D01*
X5824029Y4373651D01*
X5829109Y4378985D01*
X5839523Y4384065D01*
X5855271Y4384065D01*
X5865685Y4378985D01*
X5870765Y4373651D01*
X5875845Y4358157D01*
X5875845Y4311421D01*
X5792787Y4496333D02*
G01*
X5782373Y4490999D01*
X5771959Y4480839D01*
X5766879Y4470425D01*
X5766879Y4449597D01*
X5771959Y4439183D01*
X5782373Y4428769D01*
X5792787Y4423689D01*
X5808535Y4418355D01*
X5834443Y4418355D01*
X5849937Y4423689D01*
X5860351Y4428769D01*
X5870765Y4439183D01*
X5875845Y4449597D01*
X5875845Y4470425D01*
X5870765Y4480839D01*
X5860351Y4490999D01*
X5849937Y4496333D01*
X5787707Y4530623D02*
G01*
X5782373Y4541037D01*
X5766879Y4556531D01*
X5875845Y4556531D01*
X5058661Y4329653D02*
G01*
X5108661Y4329653D01*
X5043418Y4245175D02*
G01*
X5043418Y4314416D01*
X5108661Y4229935D02*
G01*
X5058661Y4229935D01*
X5202938Y4230149D02*
G01*
X5152938Y4230149D01*
X5152938Y4329861D02*
G01*
X5202938Y4329861D01*
X5218181Y4314626D02*
G01*
X5218181Y4245383D01*
X5490461Y3262853D02*
G01*
X5540461Y3262853D01*
X5475218Y3178375D02*
G01*
X5475218Y3247616D01*
X5540461Y3163135D02*
G01*
X5490461Y3163135D01*
X5634738Y3163349D02*
G01*
X5584738Y3163349D01*
X5584738Y3263061D02*
G01*
X5634738Y3263061D01*
X5649981Y3247826D02*
G01*
X5649981Y3178583D01*
X5338061Y4304253D02*
G01*
X5388061Y4304253D01*
X5322818Y4219775D02*
G01*
X5322818Y4289016D01*
X5388061Y4204535D02*
G01*
X5338061Y4204535D01*
X5482338Y4204749D02*
G01*
X5432338Y4204749D01*
X5432338Y4304461D02*
G01*
X5482338Y4304461D01*
X5497581Y4289226D02*
G01*
X5497581Y4219983D01*
X2048761Y4482053D02*
G01*
X2098761Y4482053D01*
X2033518Y4397575D02*
G01*
X2033518Y4466816D01*
X2098761Y4382335D02*
G01*
X2048761Y4382335D01*
X2193038Y4382549D02*
G01*
X2143038Y4382549D01*
X2143038Y4482261D02*
G01*
X2193038Y4482261D01*
X2208281Y4467026D02*
G01*
X2208281Y4397783D01*
X1985261Y5002753D02*
G01*
X2035261Y5002753D01*
X1970018Y4918275D02*
G01*
X1970018Y4987516D01*
X2035261Y4903035D02*
G01*
X1985261Y4903035D01*
X2129538Y4903249D02*
G01*
X2079538Y4903249D01*
X2079538Y5002961D02*
G01*
X2129538Y5002961D01*
X2144781Y4987726D02*
G01*
X2144781Y4918483D01*
D11*
X1981504Y5852698D02*
G01*
X1981205Y5602698D01*
X1727205Y5602698D02*
G01*
X5537197Y5602698D01*
X1727205Y5852698D02*
G01*
X1727205Y5602698D01*
X5537197Y5852698D02*
G01*
X1727205Y5852698D01*
X5537197Y5602698D02*
G01*
X5537197Y5852698D01*
X2006904Y2626898D02*
G01*
X2006605Y2376898D01*
X1752605Y2376898D02*
G01*
X5562597Y2376898D01*
X1752605Y2626898D02*
G01*
X1752605Y2376898D01*
X5562597Y2626898D02*
G01*
X1752605Y2626898D01*
X5562597Y2376898D02*
G01*
X5562597Y2626898D01*
D10*
X2022078Y4687239D02*
G01*
X1950275Y4687239D01*
X1950275Y4786960D01*
X2022078Y4786960D01*
X2067321Y4687239D02*
G01*
X2139124Y4687239D01*
X2139124Y4786960D01*
X2067321Y4786960D01*
X2187178Y3988739D02*
G01*
X2115375Y3988739D01*
X2115375Y4088460D01*
X2187178Y4088460D01*
X2232421Y3988739D02*
G01*
X2304224Y3988739D01*
X2304224Y4088460D01*
X2232421Y4088460D01*
X4714478Y3633139D02*
G01*
X4642675Y3633139D01*
X4642675Y3732860D01*
X4714478Y3732860D01*
X4759721Y3633139D02*
G01*
X4831524Y3633139D01*
X4831524Y3732860D01*
X4759721Y3732860D01*
X1978019Y3388090D02*
G01*
X2106513Y3388090D01*
X2106513Y3571509D01*
X1978019Y3571509D01*
X1882780Y3388090D02*
G01*
X1754286Y3388090D01*
X1754286Y3571509D01*
X1882780Y3571509D01*
X1978019Y3134090D02*
G01*
X2106513Y3134090D01*
X2106513Y3317509D01*
X1978019Y3317509D01*
X1882780Y3134090D02*
G01*
X1754286Y3134090D01*
X1754286Y3317509D01*
X1882780Y3317509D01*
D11*
X3831407Y4971402D02*
G01*
X2926410Y4971402D01*
X2926410Y3196407D01*
X4326407Y3196407D01*
X4326407Y4621403D01*
X3841407Y4621403D01*
X3841407Y4971402D01*
X4049522Y5146403D02*
G01*
X4481405Y5146403D01*
X4481405Y5040017D02*
G01*
X4481405Y5136403D01*
X2681409Y3250796D02*
G01*
X2681409Y3016407D01*
X4481405Y3016407D01*
X4481405Y3252795D01*
X3659291Y5146403D02*
G01*
X2681409Y5146403D01*
X2681409Y5038018D01*
X5194300Y3898900D02*
G01*
X5194300Y3594100D01*
X5218785Y3594100D01*
X5500014Y3594100D02*
G01*
X5524500Y3594100D01*
X5524500Y3898900D01*
X5500014Y3898900D01*
X5218785Y3898900D02*
G01*
X5194300Y3898900D01*
D12*
X1443375Y4212696D02*
G01*
X1443375Y4173087D01*
X1443375Y4488332D02*
G01*
X1443375Y4448723D01*
X1858619Y4212696D02*
G01*
X1858619Y4173087D01*
X1858619Y4488332D02*
G01*
X1858619Y4448723D01*
D10*
X1858619Y4488332D02*
G01*
X1443375Y4488332D01*
X1858619Y4173087D02*
G01*
X1443375Y4173087D01*
D11*
X6385971Y3667902D02*
G01*
X6199680Y3667902D01*
X6757809Y4561900D02*
G01*
X6757809Y3667902D01*
X6609679Y3667902D01*
X6386007Y4561900D02*
G01*
X6199644Y4561900D01*
X6757809Y4561900D02*
G01*
X6609643Y4561900D01*
D10*
G75*
G01*
X5202939Y4329864D02*
G02*
X5218179Y4314624I0J-15240D01*
G75*
G01*
X5218179Y4245384D02*
G02*
X5202939Y4230144I-15240J0D01*
G75*
G01*
X5058661Y4229936D02*
G02*
X5043421Y4245176I0J15240D01*
G75*
G01*
X5043421Y4314416D02*
G02*
X5058661Y4329656I15240J0D01*
G75*
G01*
X5634739Y3263064D02*
G02*
X5649979Y3247824I0J-15240D01*
G75*
G01*
X5649979Y3178584D02*
G02*
X5634739Y3163344I-15240J0D01*
G75*
G01*
X5490461Y3163136D02*
G02*
X5475221Y3178376I0J15240D01*
G75*
G01*
X5475221Y3247616D02*
G02*
X5490461Y3262856I15240J0D01*
G75*
G01*
X5482339Y4304464D02*
G02*
X5497579Y4289224I0J-15240D01*
G75*
G01*
X5497579Y4219984D02*
G02*
X5482339Y4204744I-15240J0D01*
G75*
G01*
X5338061Y4204536D02*
G02*
X5322821Y4219776I0J15240D01*
G75*
G01*
X5322821Y4289016D02*
G02*
X5338061Y4304256I15240J0D01*
G75*
G01*
X2193039Y4482264D02*
G02*
X2208279Y4467024I0J-15240D01*
G75*
G01*
X2208279Y4397784D02*
G02*
X2193039Y4382544I-15240J0D01*
G75*
G01*
X2048761Y4382336D02*
G02*
X2033521Y4397576I0J15240D01*
G75*
G01*
X2033521Y4466816D02*
G02*
X2048761Y4482056I15240J0D01*
G75*
G01*
X2129539Y5002964D02*
G02*
X2144779Y4987724I0J-15240D01*
G75*
G01*
X2144779Y4918484D02*
G02*
X2129539Y4903244I-15240J0D01*
G75*
G01*
X1985261Y4903036D02*
G02*
X1970021Y4918276I0J15240D01*
G75*
G01*
X1970021Y4987516D02*
G02*
X1985261Y5002756I15240J0D01*
D13*
G75*
G01
X2586406Y4961395D02*
G03X2586406Y4961395I-19990J0D01*
D11*
G75*
G01
X5208092Y3548507D02*
G03X5208092Y3548507I-12700J0D01*
G75*
G01
X1732331Y4330700D02*
G03X1732331Y4330700I-81331J0D01*
M02*
